PathFileType	4	(X/Y/Z)	s06c0203.trc
DataRate	CameraRate	NumFrames	NumMarkers	Units	OrigDataRate	OrigDataStartFrame	OrigNumFrames
200	200	4	48	mm	200	250	2000
Frame#	Time	racr			lacr			c7			jug			rlel			rdr			llel			ldr			s2			lic			ric			lasi			rasi			rpsi			lpsi			rgt			lgt			rth1			rth2			rth3			rth4			rlfc			rmfc			rsh1			rsh2			rsh3			rsh4			rlmal			rcal			rtoe			rmt5			lth1			lth2			lth4			lth3			llfc			lmfc			llmal			lcal			lmt5			lsh1			lsh2			lsh3			lsh4			ltoe			SBIKE			LBIKE			RBIKE			
		X1	Y1	Z1	X2	Y2	Z2	X3	Y3	Z3	X4	Y4	Z4	X5	Y5	Z5	X6	Y6	Z6	X7	Y7	Z7	X8	Y8	Z8	X9	Y9	Z9	X10	Y10	Z10	X11	Y11	Z11	X12	Y12	Z12	X13	Y13	Z13	X14	Y14	Z14	X15	Y15	Z15	X16	Y16	Z16	X17	Y17	Z17	X18	Y18	Z18	X19	Y19	Z19	X20	Y20	Z20	X21	Y21	Z21	X22	Y22	Z22	X23	Y23	Z23	X24	Y24	Z24	X25	Y25	Z25	X26	Y26	Z26	X27	Y27	Z27	X28	Y28	Z28	X29	Y29	Z29	X30	Y30	Z30	X31	Y31	Z31	X32	Y32	Z32	X33	Y33	Z33	X34	Y34	Z34	X35	Y35	Z35	X36	Y36	Z36	X37	Y37	Z37	X38	Y38	Z38	X39	Y39	Z39	X40	Y40	Z40	X41	Y41	Z41	X42	Y42	Z42	X43	Y43	Z43	X44	Y44	Z44	X45	Y45	Z45	X46	Y46	Z46	X47	Y47	Z47	X48	Y48	Z48	
250	1.2500	430.532196	1347.722731	-56.861546	447.450943	1347.769262	-392.448802	417.882976	1446.009263	-222.118599	450.891374	1289.950779	-217.646824	481.200403	1085.531023	20.415386	683.078962	941.694551	-37.199973	478.148211	1081.029032	-469.465077	674.926165	932.230222	-412.815704	-49.687275	1124.330687	-230.974521	137.605923	1095.129699	-391.198146	106.049319	1102.941878	-55.337713	151.693689	1027.324857	-360.384575	136.075832	1056.041508	-86.063723	-22.369494	1162.350432	-196.384825	-18.611635	1160.085247	-258.745770	74.352116	1041.995447	-22.748996	97.146371	1017.036193	-419.677149	183.347006	975.770774	-18.168508	272.133662	956.711715	-24.812269	335.672103	898.066341	-29.873252	284.331811	987.030703	-44.647454	404.511512	816.375475	-53.031261	400.677323	789.428272	-163.297657	370.534047	700.070619	-22.732359	362.710179	614.216618	-40.636766	316.904703	540.163346	-39.767538	383.499504	610.313623	-73.979499	283.678401	461.731244	-41.266357	216.948180	443.007474	-88.994708	483.431608	373.975003	-103.579616	388.869778	371.617359	-27.960628	150.966315	907.356594	-427.606529	222.766937	858.708587	-417.798519	249.210359	882.221253	-405.199866	260.713408	778.347243	-409.069594	289.503844	673.826024	-379.105814	288.350235	657.694093	-261.886181	32.771538	406.097068	-375.932973	-37.775473	429.319896	-330.155561	80.942407	270.905305	-398.550502	221.636268	593.674973	-402.553156	179.519329	519.193168	-384.964548	104.122290	471.910683	-386.106463	198.821318	505.760089	-353.736276	149.556735	219.744398	-339.229641	-204.633448	864.520158	-212.161979	-51.093173	79.933236	-411.504679	-51.017412	79.770559	-14.579506	
251	1.2550	430.561389	1347.697723	-56.809120	447.490166	1347.758255	-392.412896	417.904103	1445.986143	-222.072912	450.977146	1289.930097	-217.614280	481.174799	1085.475748	20.493853	683.069668	941.672452	-37.194078	478.150193	1081.018994	-469.493448	674.908547	932.185368	-412.802326	-49.676558	1124.323027	-230.996708	137.607745	1095.142374	-391.200215	106.044993	1102.946068	-55.371658	151.666081	1027.313036	-360.382594	136.055408	1056.036888	-86.099855	-22.382899	1162.364687	-196.387599	-18.596182	1160.098872	-258.763340	74.355132	1042.006210	-22.759429	97.134804	1017.053544	-419.681717	183.340687	975.795409	-18.158274	272.136312	956.742373	-24.791380	335.657051	898.102314	-29.851849	284.341486	987.076167	-44.648228	404.509691	816.431806	-53.025301	400.684928	789.478172	-163.300387	370.536872	700.119822	-22.718834	362.714882	614.258262	-40.628549	316.910626	540.204226	-39.768959	383.507631	610.382105	-73.954047	283.702802	461.776992	-41.262978	216.953734	443.063330	-89.000203	483.424712	373.983939	-103.580174	388.869470	371.645838	-27.950540	150.938400	907.377261	-427.609074	222.757179	858.715016	-417.815489	249.191223	882.227066	-405.223695	260.692519	778.369715	-409.093834	289.487748	673.837776	-379.140373	288.352063	657.710544	-261.914503	32.790478	406.090824	-375.938133	-37.752889	429.305920	-330.168112	80.962065	270.884978	-398.566603	221.631492	593.674818	-402.562935	179.533581	519.185758	-384.998827	104.134913	471.904325	-386.139170	198.833300	505.762708	-353.781188	149.577385	219.714015	-339.245733	-204.624462	864.522956	-212.156652	-51.095500	79.947126	-411.509733	-51.033233	79.742430	-14.588155	
252	1.2600	430.606784	1347.641903	-56.736613	447.535652	1347.732793	-392.369628	417.903087	1445.951765	-221.992212	451.013056	1289.898090	-217.553446	481.162050	1085.405501	20.589358	683.072102	941.605276	-37.210586	478.279136	1081.168936	-469.818722	674.911433	932.158889	-412.807647	-49.666323	1124.332852	-231.003225	137.606290	1095.160454	-391.198746	106.036027	1102.930855	-55.404878	151.660534	1027.332923	-360.408958	136.030528	1056.009738	-86.130382	-22.366564	1162.359992	-196.393453	-18.594991	1160.118460	-258.770072	74.374624	1042.023793	-22.771630	97.088935	1017.055759	-419.705138	183.348617	975.832340	-18.176760	272.134258	956.780422	-24.788848	335.661238	898.169977	-29.854436	284.361408	987.130653	-44.637418	404.517418	816.484792	-53.018219	400.705323	789.532549	-163.313665	370.529049	700.152382	-22.715814	362.721212	614.299176	-40.613729	316.908304	540.279641	-39.758874	383.533539	610.439052	-73.934929	283.701915	461.815600	-41.262632	216.963791	443.125789	-88.991778	483.412412	373.997281	-103.579525	388.868814	371.689980	-27.945970	150.905493	907.395261	-427.634956	222.724709	858.725037	-417.839584	249.160792	882.235778	-405.250732	260.672075	778.381051	-409.133530	289.488006	673.841759	-379.164154	288.372886	657.735649	-261.937813	32.810838	406.052002	-375.935345	-37.724509	429.281138	-330.155607	80.957261	270.836280	-398.549882	221.643060	593.674513	-402.607179	179.552092	519.184880	-384.994945	104.156438	471.877648	-386.120717	198.852932	505.762205	-353.779565	149.592027	219.682780	-339.267940	-204.634357	864.519224	-212.163926	-51.098299	79.927598	-411.499941	-51.089870	80.155998	-14.220501	
253	1.2650	430.666274	1347.614902	-56.662996	447.597898	1347.711407	-392.308768	417.933656	1445.931330	-221.921252	451.080207	1289.865762	-217.538625	481.163703	1085.352864	20.675424	683.053764	941.574049	-37.220924	478.147012	1080.996755	-469.559012	674.921125	932.123778	-412.783900	-49.674789	1124.343749	-231.012527	137.591958	1095.173013	-391.187559	106.017289	1102.900534	-55.447887	151.648093	1027.353765	-360.412281	135.976717	1055.954912	-86.170102	-22.361999	1162.367871	-196.399191	-18.574138	1160.111582	-258.787092	74.373939	1042.047205	-22.786959	97.065487	1017.066365	-419.725671	183.371745	975.861753	-18.171051	272.155133	956.818562	-24.770565	335.680746	898.210600	-29.838188	284.365068	987.170938	-44.637306	404.516782	816.523837	-53.020043	400.728594	789.597343	-163.290899	370.522673	700.163575	-22.707036	362.721417	614.370668	-40.611731	316.937011	540.334443	-39.746989	383.553184	610.477247	-73.942643	283.715110	461.859935	-41.247533	216.981850	443.193830	-88.980467	483.429922	374.020919	-103.568214	389.128683	372.304871	-27.348060	150.853855	907.385138	-427.652997	222.690861	858.740470	-417.872189	249.126953	882.245162	-405.271285	260.633045	778.386385	-409.162758	289.475942	673.835314	-379.199563	288.370974	657.734576	-261.960454	32.838129	406.028190	-375.942477	-37.702006	429.236770	-330.145709	80.984775	270.800686	-398.569992	221.647083	593.655041	-402.620102	179.566607	519.172855	-385.020328	104.171561	471.855325	-386.138033	198.867836	505.736839	-353.783302	149.590437	219.627315	-339.261581	-204.628611	864.522766	-212.176440	-51.095428	79.950969	-411.506047	-51.065181	80.145755	-14.212254	
